<svg width="304" height="157" viewBox="0 0 304 157" fill="none" xmlns="http://www.w3.org/2000/svg">
<path d="M100.392 131.64C97.6613 131.64 95.208 131.192 93.032 130.296C90.856 129.357 89 128.077 87.464 126.456C85.9707 124.835 84.8187 122.979 84.008 120.888C83.1973 118.797 82.792 116.6 82.792 114.296C82.792 111.949 83.1973 109.731 84.008 107.64C84.8187 105.549 85.9707 103.693 87.464 102.072C89 100.451 90.856 99.192 93.032 98.296C95.208 97.3573 97.6613 96.888 100.392 96.888C103.123 96.888 105.555 97.3573 107.688 98.296C109.864 99.192 111.72 100.451 113.256 102.072C114.792 103.693 115.944 105.549 116.712 107.64C117.523 109.731 117.928 111.949 117.928 114.296C117.928 116.6 117.523 118.797 116.712 120.888C115.944 122.979 114.792 124.835 113.256 126.456C111.763 128.077 109.928 129.357 107.752 130.296C105.576 131.192 103.123 131.64 100.392 131.64ZM91.624 114.296C91.624 116.259 92.008 118.008 92.776 119.544C93.544 121.037 94.5893 122.211 95.912 123.064C97.2347 123.917 98.728 124.344 100.392 124.344C102.013 124.344 103.485 123.917 104.808 123.064C106.131 122.168 107.176 120.973 107.944 119.48C108.755 117.944 109.16 116.195 109.16 114.232C109.16 112.312 108.755 110.584 107.944 109.048C107.176 107.512 106.131 106.317 104.808 105.464C103.485 104.611 102.013 104.184 100.392 104.184C98.728 104.184 97.2347 104.632 95.912 105.528C94.5893 106.381 93.544 107.576 92.776 109.112C92.008 110.605 91.624 112.333 91.624 114.296ZM143.313 129.272C142.587 129.571 141.713 129.912 140.689 130.296C139.665 130.68 138.555 130.979 137.361 131.192C136.209 131.448 135.035 131.576 133.841 131.576C132.262 131.576 130.811 131.299 129.489 130.744C128.166 130.189 127.099 129.315 126.289 128.12C125.521 126.883 125.137 125.283 125.137 123.32V104.056H120.721V97.464H125.137V86.584H133.713V97.464H140.753V104.056H133.713V120.44C133.755 121.592 134.075 122.424 134.673 122.936C135.27 123.448 136.017 123.704 136.913 123.704C137.809 123.704 138.683 123.555 139.537 123.256C140.39 122.957 141.073 122.701 141.585 122.488L143.313 129.272ZM162.956 131.64C160.268 131.64 157.836 131.192 155.66 130.296C153.484 129.357 151.628 128.099 150.092 126.52C148.556 124.899 147.361 123.064 146.508 121.016C145.697 118.925 145.292 116.728 145.292 114.424C145.292 111.224 145.996 108.301 147.404 105.656C148.855 103.011 150.903 100.899 153.548 99.32C156.236 97.6987 159.393 96.888 163.02 96.888C166.689 96.888 169.825 97.6987 172.428 99.32C175.031 100.899 177.015 103.011 178.38 105.656C179.788 108.259 180.492 111.075 180.492 114.104C180.492 114.616 180.471 115.149 180.428 115.704C180.385 116.216 180.343 116.643 180.3 116.984H154.38C154.551 118.691 155.041 120.184 155.852 121.464C156.705 122.744 157.772 123.725 159.052 124.408C160.375 125.048 161.783 125.368 163.276 125.368C164.983 125.368 166.583 124.963 168.076 124.152C169.612 123.299 170.657 122.189 171.212 120.824L178.572 122.872C177.761 124.579 176.588 126.093 175.052 127.416C173.559 128.739 171.788 129.784 169.74 130.552C167.692 131.277 165.431 131.64 162.956 131.64ZM154.188 111.544H171.724C171.553 109.837 171.063 108.365 170.252 107.128C169.484 105.848 168.46 104.867 167.18 104.184C165.9 103.459 164.471 103.096 162.892 103.096C161.356 103.096 159.948 103.459 158.668 104.184C157.431 104.867 156.407 105.848 155.596 107.128C154.828 108.365 154.359 109.837 154.188 111.544ZM221.188 131.32C217.561 131.32 214.468 130.723 211.908 129.528C209.39 128.291 207.342 126.605 205.764 124.472C204.228 122.339 203.097 119.928 202.372 117.24C201.646 114.509 201.284 111.672 201.284 108.728V85.56H210.116V108.728C210.116 110.605 210.286 112.44 210.628 114.232C211.012 115.981 211.63 117.56 212.484 118.968C213.337 120.376 214.468 121.485 215.876 122.296C217.284 123.107 219.033 123.512 221.124 123.512C223.257 123.512 225.028 123.107 226.436 122.296C227.886 121.443 229.017 120.312 229.828 118.904C230.681 117.496 231.3 115.917 231.684 114.168C232.068 112.376 232.26 110.563 232.26 108.728V85.56H241.028V108.728C241.028 111.843 240.644 114.765 239.876 117.496C239.15 120.227 237.977 122.637 236.356 124.728C234.777 126.776 232.729 128.397 230.212 129.592C227.694 130.744 224.686 131.32 221.188 131.32ZM268.625 131.64C266.022 131.64 263.718 131.064 261.713 129.912C259.75 128.717 258.214 127.117 257.105 125.112V144.632H248.529V97.464H256.017V103.224C257.297 101.261 258.918 99.7253 260.881 98.616C262.844 97.464 265.084 96.888 267.601 96.888C269.862 96.888 271.932 97.336 273.809 98.232C275.729 99.128 277.393 100.387 278.801 102.008C280.209 103.587 281.297 105.421 282.065 107.512C282.876 109.56 283.281 111.779 283.281 114.168C283.281 117.411 282.641 120.355 281.361 123C280.124 125.645 278.396 127.757 276.177 129.336C274.001 130.872 271.484 131.64 268.625 131.64ZM265.745 124.344C267.068 124.344 268.262 124.067 269.329 123.512C270.396 122.957 271.313 122.211 272.081 121.272C272.892 120.291 273.489 119.203 273.873 118.008C274.3 116.771 274.513 115.491 274.513 114.168C274.513 112.76 274.278 111.459 273.809 110.264C273.382 109.069 272.742 108.024 271.889 107.128C271.036 106.189 270.033 105.464 268.881 104.952C267.772 104.44 266.556 104.184 265.233 104.184C264.422 104.184 263.59 104.333 262.737 104.632C261.926 104.888 261.137 105.272 260.369 105.784C259.601 106.296 258.918 106.893 258.321 107.576C257.766 108.259 257.361 109.005 257.105 109.816V117.688C257.617 118.925 258.3 120.056 259.153 121.08C260.049 122.104 261.073 122.915 262.225 123.512C263.377 124.067 264.55 124.344 265.745 124.344Z" fill="white"/>
<rect y="56.0704" width="35" height="95" rx="17.5" transform="rotate(-26.5 0 56.0704)" fill="url(#paint0_linear_103_5)"/>
<rect x="89.3" width="35" height="141" rx="17.5" transform="rotate(26.5 89.3 0)" fill="url(#paint1_linear_103_5)"/>
<defs>
<linearGradient id="paint0_linear_103_5" x1="17.5" y1="56.0704" x2="17.5" y2="151.07" gradientUnits="userSpaceOnUse">
<stop stop-color="#FD2929" stop-opacity="0.66"/>
<stop offset="1" stop-color="#FD29C2" stop-opacity="0.76"/>
</linearGradient>
<linearGradient id="paint1_linear_103_5" x1="106.8" y1="0" x2="106.8" y2="141" gradientUnits="userSpaceOnUse">
<stop stop-color="#FD2929" stop-opacity="0.66"/>
<stop offset="1" stop-color="#FD29C2" stop-opacity="0.76"/>
</linearGradient>
</defs>
</svg>
